<?xml version="1.0" encoding="UTF-8"?>
<svg width="11px" height="12px" viewBox="0 0 11 12" version="1.1" xmlns="http://www.w3.org/2000/svg" xmlns:xlink="http://www.w3.org/1999/xlink">
    <!-- Generator: Sketch 59.1 (86144) - https://sketch.com -->
    <title>units-icon</title>
    <desc>Created with Sketch.</desc>
    <g id="Symbols" stroke="none" stroke-width="1" fill="none" fill-rule="evenodd">
        <g id="Property-Card-(real)" transform="translate(-32.000000, -418.000000)">
            <g id="units-icon" transform="translate(30.000000, 417.000000)">
                <rect id="Rectangle" x="0" y="0" width="15" height="13"></rect>
                <path d="M12.21875,12.25 C12.2968754,12.25 12.363281,12.2773435 12.4179688,12.3320312 C12.4726565,12.386719 12.5,12.4531246 12.5,12.53125 L12.5,13 L2,13 L2,12.53125 C2,12.4531246 2.02734348,12.386719 2.08203125,12.3320312 C2.13671902,12.2773435 2.20312461,12.25 2.28125,12.25 L2.75,12.25 L2.75,1.5625 C2.75,1.40624922 2.80468695,1.27343805 2.9140625,1.1640625 C3.02343805,1.05468695 3.15624922,1 3.3125,1 L11.1875,1 C11.3437508,1 11.476562,1.05468695 11.5859375,1.1640625 C11.695313,1.27343805 11.75,1.40624922 11.75,1.5625 L11.75,12.25 L12.21875,12.25 Z M5,2.78125 L5,3.71875 C5,3.79687539 5.02734348,3.86328098 5.08203125,3.91796875 C5.13671902,3.97265652 5.20312461,4 5.28125,4 L6.21875,4 C6.29687539,4 6.36328098,3.97265652 6.41796875,3.91796875 C6.47265652,3.86328098 6.5,3.79687539 6.5,3.71875 L6.5,2.78125 C6.5,2.70312461 6.47265652,2.63671902 6.41796875,2.58203125 C6.36328098,2.52734348 6.29687539,2.5 6.21875,2.5 L5.28125,2.5 C5.20312461,2.5 5.13671902,2.52734348 5.08203125,2.58203125 C5.02734348,2.63671902 5,2.70312461 5,2.78125 Z M5,5.03125 L5,5.96875 C5,6.04687539 5.02734348,6.11328098 5.08203125,6.16796875 C5.13671902,6.22265652 5.20312461,6.25 5.28125,6.25 L6.21875,6.25 C6.29687539,6.25 6.36328098,6.22265652 6.41796875,6.16796875 C6.47265652,6.11328098 6.5,6.04687539 6.5,5.96875 L6.5,5.03125 C6.5,4.95312461 6.47265652,4.88671902 6.41796875,4.83203125 C6.36328098,4.77734348 6.29687539,4.75 6.21875,4.75 L5.28125,4.75 C5.20312461,4.75 5.13671902,4.77734348 5.08203125,4.83203125 C5.02734348,4.88671902 5,4.95312461 5,5.03125 Z M6.21875,8.5 C6.29687539,8.5 6.36328098,8.47265652 6.41796875,8.41796875 C6.47265652,8.36328098 6.5,8.29687539 6.5,8.21875 L6.5,7.28125 C6.5,7.20312461 6.47265652,7.13671902 6.41796875,7.08203125 C6.36328098,7.02734348 6.29687539,7 6.21875,7 L5.28125,7 C5.20312461,7 5.13671902,7.02734348 5.08203125,7.08203125 C5.02734348,7.13671902 5,7.20312461 5,7.28125 L5,8.21875 C5,8.29687539 5.02734348,8.36328098 5.08203125,8.41796875 C5.13671902,8.47265652 5.20312461,8.5 5.28125,8.5 L6.21875,8.5 Z M8,12.25 L8,10.28125 C8,10.2031246 7.97265652,10.136719 7.91796875,10.0820312 C7.86328098,10.0273435 7.79687539,10 7.71875,10 L6.78125,10 C6.70312461,10 6.63671902,10.0273435 6.58203125,10.0820312 C6.52734348,10.136719 6.5,10.2031246 6.5,10.28125 L6.5,12.25 L8,12.25 Z M9.5,8.21875 L9.5,7.28125 C9.5,7.20312461 9.47265652,7.13671902 9.41796875,7.08203125 C9.36328098,7.02734348 9.29687539,7 9.21875,7 L8.28125,7 C8.20312461,7 8.13671902,7.02734348 8.08203125,7.08203125 C8.02734348,7.13671902 8,7.20312461 8,7.28125 L8,8.21875 C8,8.29687539 8.02734348,8.36328098 8.08203125,8.41796875 C8.13671902,8.47265652 8.20312461,8.5 8.28125,8.5 L9.21875,8.5 C9.29687539,8.5 9.36328098,8.47265652 9.41796875,8.41796875 C9.47265652,8.36328098 9.5,8.29687539 9.5,8.21875 Z M9.5,5.96875 L9.5,5.03125 C9.5,4.95312461 9.47265652,4.88671902 9.41796875,4.83203125 C9.36328098,4.77734348 9.29687539,4.75 9.21875,4.75 L8.28125,4.75 C8.20312461,4.75 8.13671902,4.77734348 8.08203125,4.83203125 C8.02734348,4.88671902 8,4.95312461 8,5.03125 L8,5.96875 C8,6.04687539 8.02734348,6.11328098 8.08203125,6.16796875 C8.13671902,6.22265652 8.20312461,6.25 8.28125,6.25 L9.21875,6.25 C9.29687539,6.25 9.36328098,6.22265652 9.41796875,6.16796875 C9.47265652,6.11328098 9.5,6.04687539 9.5,5.96875 Z M9.5,3.71875 L9.5,2.78125 C9.5,2.70312461 9.47265652,2.63671902 9.41796875,2.58203125 C9.36328098,2.52734348 9.29687539,2.5 9.21875,2.5 L8.28125,2.5 C8.20312461,2.5 8.13671902,2.52734348 8.08203125,2.58203125 C8.02734348,2.63671902 8,2.70312461 8,2.78125 L8,3.71875 C8,3.79687539 8.02734348,3.86328098 8.08203125,3.91796875 C8.13671902,3.97265652 8.20312461,4 8.28125,4 L9.21875,4 C9.29687539,4 9.36328098,3.97265652 9.41796875,3.91796875 C9.47265652,3.86328098 9.5,3.79687539 9.5,3.71875 Z" id="Shape" fill="#FF7F32" fill-rule="nonzero"></path>
            </g>
        </g>
    </g>
</svg>