<?xml version="1.0" encoding="UTF-8"?>
<svg width="9px" height="13px" viewBox="0 0 9 13" version="1.1" xmlns="http://www.w3.org/2000/svg" xmlns:xlink="http://www.w3.org/1999/xlink">
    <!-- Generator: Sketch 59.1 (86144) - https://sketch.com -->
    <title>location-icon</title>
    <desc>Created with Sketch.</desc>
    <g id="Symbols" stroke="none" stroke-width="1" fill="none" fill-rule="evenodd">
        <g id="Property-Card-(real)" transform="translate(-33.000000, -391.000000)">
            <g id="location-icon" transform="translate(30.000000, 391.000000)">
                <rect id="Rectangle" x="0" y="0" width="15" height="13"></rect>
                <path d="M9.5,4.44166667 C9.5,3.18863932 8.52669271,2.16666667 7.33333333,2.16666667 C6.13997396,2.16666667 5.16666667,3.18863932 5.16666667,4.44166667 C5.16666667,5.69469402 6.13997396,6.71666667 7.33333333,6.71666667 C8.52669271,6.71666667 9.5,5.69469402 9.5,4.44166667 Z M11.6666666,4.33333334 C11.6666666,4.84960937 11.6074219,5.3828125 11.3873698,5.8483073 L8.30664062,12.3990885 C8.12890626,12.7714844 7.73958333,13 7.33333333,13 C6.92708333,13 6.53776042,12.7714844 6.36848959,12.3990885 L3.27929688,5.8483073 C3.05924479,5.3828125 3,4.84960937 3,4.33333334 C3,1.93815105 4.93815104,0 7.33333333,0 C9.72851562,0 11.6666666,1.93815105 11.6666666,4.33333334 Z" id="Shape" fill="#FF7F32"></path>
            </g>
        </g>
    </g>
</svg>