<?xml version="1.0" encoding="utf-8"?>
<!-- Generator: Adobe Illustrator 24.0.3, SVG Export Plug-In . SVG Version: 6.00 Build 0)  -->
<svg version="1.1" id="Layer_1" xmlns="http://www.w3.org/2000/svg" xmlns:xlink="http://www.w3.org/1999/xlink" x="0px" y="0px"
	 viewBox="0 0 13 13" style="enable-background:new 0 0 13 13;" xml:space="preserve">
<style type="text/css">
	.st0{fill:#FF7F32;}
</style>
<title>percent</title>
<desc>Created with Sketch.</desc>
<g>
	<path class="st0" d="M12.8,0.2c-0.3-0.3-0.8-0.3-1.2,0L0.2,11.6c-0.3,0.3-0.3,0.8,0,1.2C0.4,12.9,0.6,13,0.8,13s0.4-0.1,0.6-0.2
		L12.8,1.4C13.1,1.1,13.1,0.6,12.8,0.2z"/>
	<path class="st0" d="M3.1,6.3c1.7,0,3.1-1.4,3.1-3.1S4.9,0,3.1,0S0,1.4,0,3.1S1.4,6.3,3.1,6.3z M3.1,1.7c0.8,0,1.4,0.6,1.4,1.4
		S3.9,4.6,3.1,4.6S1.7,3.9,1.7,3.1S2.3,1.7,3.1,1.7z"/>
	<path class="st0" d="M9.9,6.7c-1.7,0-3.1,1.4-3.1,3.1S8.1,13,9.9,13S13,11.6,13,9.9S11.6,6.7,9.9,6.7z M9.9,11.3
		c-0.8,0-1.4-0.6-1.4-1.4c0-0.8,0.6-1.4,1.4-1.4c0.8,0,1.4,0.6,1.4,1.4C11.3,10.7,10.7,11.3,9.9,11.3z"/>
</g>
</svg>
