<?xml version="1.0" encoding="utf-8"?>
<svg version="1.1" id="Layer_1" xmlns="http://www.w3.org/2000/svg" xmlns:xlink="http://www.w3.org/1999/xlink" x="0px" y="0px"
	 viewBox="0 0 500 78.8" style="enable-background:new 0 0 500 78.8;" xml:space="preserve">
<style type="text/css">
	.st0{fill:#FFFFFF;}
</style>
<g>
	<g>
		<g>
			<path class="st0" d="M12,54.5h-10c0,0,3.1-0.5,3.3-3c0.1-0.7,0-43,0-43s0.2-2-2.8-3h10l12.5,24.7L35.9,5.4h10c0,0-2.8,0.8-2.8,3
				c0,0.3,0,43,0,43c0.1,1.8,3,3,3,3H32.8c0,0,3.2-1.2,3.3-3c0-0.7,0-40.7,0-40.7L22.9,39.4L9,10.9v40.3C9.3,53.5,11.7,54.4,12,54.5
				z"/>
		</g>
		<g>
			<path class="st0" d="M85.3,27.8c0,0,0.3-1.9-1.8-2.2c0,0,4.6-1.4,8.3-4v6.2c0,0,2.7-7.4,9.8-6.9v6.6c0,0-3.5-4.8-9.8,2.2
				c0,0,0,21.5,0,21.5c0.2,3.3,1.8,3.3,1.8,3.3s-10.9,0-10.2,0s1.8-0.4,1.9-3.3C85.3,51.2,85.3,27.8,85.3,27.8z"/>
		</g>
		<g>
			<path class="st0" d="M141.8,47.1c0.2,5.5,7.7,7.3,11.5,1.2v-21c-0.1-1.4-1.3-1.7-1.8-1.9c-0.5-0.2,5.4-0.8,8.4-3.9
				c0,0,0,29.1,0,30c0,0.9,0,2.2,1.6,3h-8c0,0-0.1-3.6,0-4.8c-1.3,3-9.2,7.4-14.1,3.9c0,0-4.2-2.5-4.2-6.9V27.4
				c-0.2-1.4-2.2-1.9-2.2-1.9s6.7-1.7,8.7-4L141.8,47.1L141.8,47.1z"/>
		</g>
		<g>
			<path class="st0" d="M311.2,51.2c0.2,3.3,1.8,3.3,1.8,3.3s-10.9,0-10.2,0s1.8-0.4,1.9-3.3c0.1-2.8,0.1-23.5,0.1-23.5
				s0.3-1.9-1.9-2.2c0,0,4.6-1.4,8.4-4L311.2,51.2z"/>
			<g>
				<path class="st0" d="M307.8,18.1c2.2,0,3.9-1.7,3.9-3.9s-1.8-3.9-3.9-3.9c-2.2,0-3.9,1.7-3.9,3.9
					C303.9,16.4,305.6,18.1,307.8,18.1z"/>
				<path class="st0" d="M307.8,14.2"/>
			</g>
		</g>
		<g>
			<path class="st0" d="M328,51.2c0.2,3.3,1.8,3.3,1.8,3.3s-10.9,0-10.2,0s1.8-0.4,1.9-3.3c0.1-2.8,0.1-39.6,0.1-39.6
				s0.2-1.8-1.9-2.2c0,0,4.6-1.4,8.4-4.1L328,51.2z"/>
		</g>
		<path class="st0" d="M465.5,27.7c0,0,0.2-1.9-1.9-2.2c0,0,4.7-1.4,8.4-4v4.1h0c3.2-3.8,19.1-10.9,25.5,5.1
			c5.7,14.1-7.1,25-15.4,24.7c-6.1-0.3-8.7-2.9-10.1-4.5v13.5c0.2,3.3,1.7,3.3,1.7,3.3s-10.9,0-10.2,0s1.9-0.4,2-3L465.5,27.7
			L465.5,27.7z M472.1,47.1c2.6,4.8,7.8,6.9,11.2,5.9c2.4-0.7,11.2-4.8,8.2-19.1c-2.4-11.3-14.4-13.3-19.4-5.6V47.1z"/>
		<g>
			<path class="st0" d="M167.8,44.8c0,0,3.6,8.8,11.9,8.7c5.1-0.1,7.8-3,7.8-6c0-3.4-3.8-5.9-8.9-7.5c-12.4-3.7-11.7-13.4-7.8-16.8
				c0.7-0.6,6-5.5,17.2-0.1v6.4c-0.8-4.9-11.9-11.4-14.8-4c-1.7,4.3,4.9,7.6,9,8.9c1.5,0.5,9.6,3.4,9.5,10.3
				c-0.1,6-5.8,10.9-14,10.7c-4.9-0.1-8.7-1.7-9.9-2.5V44.8z"/>
		</g>
		<path class="st0" d="M76.6,51.1c0,1.7,0.9,2.9,2.4,3.4h-9.4v-4.9c0,0-7.3,9.3-16.8,3.2c-0.5-0.3-7.5-6.4,0.3-14.1
			c0,0,3.1-2.8,8.6-4c5.4-1.2,7.7-2.7,8-5.7c0.3-3.4-2.5-6.4-5.6-6.1c-2.6,0.2-6.2,1.4-12,8.5v-7.2c0,0,23-11.1,24.5,7
			C76.6,31.3,76.6,50.4,76.6,51.1z M69.7,33.4c-12.9,4.4-12.5,8.1-12.9,9.4c-0.5,1.9-0.2,7.5,4.1,8.9c5.7,1.8,8.7-4.5,8.7-4.5V33.4z
			"/>
		<path class="st0" d="M458.2,51.2c0,1.7,0.9,2.9,2.4,3.4h-9.4v-4.9c0,0-7.3,9.3-16.8,3.2c-0.5-0.3-7.5-6.4,0.3-14.1
			c0,0,3.1-2.8,8.6-4c5.4-1.2,7.7-2.7,8-5.7c0.3-3.4-2.5-6.4-5.5-6.1c-2.6,0.2-6.2,1.4-12,8.5v-7.2c0,0,23-11,24.5,7
			C458.2,31.3,458.2,50.5,458.2,51.2z M451.2,33.5c-12.9,4.4-12.5,8.1-12.9,9.4c-0.5,1.9-0.2,7.5,4.1,8.9c5.7,1.8,8.7-4.5,8.7-4.5
			L451.2,33.5L451.2,33.5z"/>
		<g>
			<path class="st0" d="M129.6,49.7c-0.5,0.8-7.4,7-17.3,4.5c-12.2-3.2-13.8-18.5-7.8-25.8C114.7,16,128.3,23,128.3,23v7.3
				c-3.5-4.7-7.1-10-14.3-6.5s-6,17.5-4.4,21.2C109.6,45.1,113.4,57.5,129.6,49.7z"/>
		</g>
		<g>
			<path class="st0" d="M405.9,5.3c-3.7,2.7-8.4,4.1-8.4,4.1c2,0.3,1.8,2.2,1.8,2.2s0.1,36.8,0,39.6c-0.1,2.9-1.2,3.3-1.9,3.3
				c-0.7,0,10.2,0,10.2,0s-1.6,0-1.8-3.3l0-22.1c-0.1-3.6,13.5-11.1,13.5,1v21.2c-0.1,2.9-1.1,3.3-1.8,3.3c-0.7,0,10.2,0,10.2,0
				s-1.7,0-1.9-3.3V28.1c-0.2-8.2-14.8-10.2-20-2.1L405.9,5.3z"/>
		</g>
		<g>
			<path class="st0" d="M394.5,49.7c-0.5,0.8-7.4,7-17.3,4.5c-12.2-3.2-13.8-18.5-7.8-25.8C379.6,16,393.2,23,393.2,23v7.3
				c-3.5-4.7-7.1-10-14.3-6.5c-7.1,3.5-6,17.5-4.4,21.2C374.5,45.1,378.2,57.5,394.5,49.7z"/>
		</g>
		<g>
			<path class="st0" d="M360.5,51.2c0.2,3.3,1.8,3.3,1.8,3.3s-10.9,0-10.2,0s1.8-0.4,1.9-3.3c0.1-2.8,0.1-23.5,0.1-23.5
				s0.3-1.9-1.9-2.2c0,0,4.6-1.4,8.4-4L360.5,51.2z"/>
			<g>
				<path class="st0" d="M357.1,18.1c2.2,0,3.9-1.7,3.9-3.9s-1.8-3.9-3.9-3.9s-3.9,1.7-3.9,3.9S354.9,18.1,357.1,18.1z"/>
				<path class="st0" d="M357.1,14.2"/>
			</g>
		</g>
		<g>
			<path class="st0" d="M343.7,51.2c0.2,3.3,1.8,3.3,1.8,3.3s-10.9,0-10.2,0s1.8-0.4,1.9-3.3c0.1-2.8,0.1-39.6,0.1-39.6
				s0.2-1.8-1.9-2.2c0,0,4.6-1.4,8.4-4.1L343.7,51.2z"/>
		</g>
		<g>
			<path class="st0" d="M262.8,54.5h-10c0,0,3.1-0.5,3.3-3c0.1-0.7,0-43,0-43s0.2-2-2.8-3h10l12.5,24.7l10.8-24.7h10
				c0,0-2.8,0.8-2.8,3c0,0.3,0,43,0,43c0.1,1.8,3,3,3,3h-13.3c0,0,3.2-1.2,3.3-3c0-0.7,0-40.7,0-40.7l-13.3,28.6l-13.9-28.5v40.3
				C260.1,53.5,262.5,54.4,262.8,54.5z"/>
		</g>
		<path class="st0" d="M499,71.2H257.6c0.7,0.3,0,0.1-0.7-0.4c-1.9-1.2-6.4-4.1-9.3-6.7c-1-0.9-1.9-1.7-2.6-2.2c0,0-2.3-1.9-2.2-1.9
			c-17.2-15.8-25.6-25.4-25.6-29.5c0-3,2.3-5.3,5.5-5.3c4.1,0,7.7,3.6,9.3,7.1c0,0.1,0.1,0.2,0.1,0.3c0.2,0.5,0.5,1.2,1.3,1.2
			c0.5,0,1.1-0.4,1.1-1c0,0-0.2-6.7-0.2-6.7c0,0,0-0.1,0-0.2c0-0.6,0-1.4-0.4-1.8c-0.2-0.2-0.5-0.3-0.8-0.3c-0.5,0-0.9,0.3-1.1,0.5
			c-0.1,0-0.1,0.1-0.2,0.1c-0.1,0-0.2-0.1-0.4-0.2c-1.1-0.5-3.6-1.7-7.2-1.7c-5.7,0-11.9,3.1-11.9,9.9c0,3.2,1.5,5.9,3,7.7
			c-7,1.8-11,7.2-11,15.1c0,5.3,2.1,9.9,6,13.3c1.1,1,2.4,1.8,3.8,2.5h0H2v2.4h222.1c0,0,0,0,0.1,0c6.7,0,12.1-2.2,17.4-6.9
			c0.5,0.4,1,0.8,1.5,1.2c3.4,2.8,6.9,5.7,11.6,5.7c0,0,0.1,0,0.1,0H499L499,71.2L499,71.2z M226.8,68.7c-9.3,0-17.7-8-17.7-16.8
			c0-4.1,3.3-9.1,7.3-9.1c1,0,2.8,2,5.6,5.2c3.5,3.9,8.8,9.8,16.9,16.6C235.6,67.2,231.2,68.7,226.8,68.7z"/>
	</g>
</g>
</svg>
